<?xml version="1.0" encoding="UTF-8"?>
<svg version="1.1" xmlns="http://www.w3.org/2000/svg" width="600" height="600">
<path d="M0 0 C198 0 396 0 600 0 C600 198 600 396 600 600 C402 600 204 600 0 600 C0 402 0 204 0 0 Z " fill="#3849D0" transform="translate(0,0)"/>
<path d="M0 0 C1.22244667 0.00333092 1.22244667 0.00333092 2.46958923 0.00672913 C3.39046829 0.00680466 4.31134735 0.00688019 5.26013184 0.00695801 C6.2611644 0.01211929 7.26219696 0.01728058 8.29356384 0.02259827 C9.31316696 0.02401321 10.33277008 0.02542816 11.38327026 0.02688599 C14.65417867 0.03250355 17.92501972 0.04505902 21.19590759 0.05775452 C23.40749515 0.06276725 25.61908377 0.06733055 27.83067322 0.07142639 C33.26494116 0.08247868 38.69916957 0.09923389 44.13340759 0.12025452 C49.8841944 16.27136928 55.6321118 32.4233303 61.07090759 48.68275452 C61.41113953 49.69442688 61.75137146 50.70609924 62.10191345 51.74842834 C63.78346383 56.81285756 65.37005127 61.89296705 66.84689331 67.02017212 C69.62451368 76.66019768 72.80063091 86.13215446 76.09269714 95.60749817 C80.45997656 108.18769643 84.75748953 120.76132931 88.50523376 133.54212952 C91.62657395 144.03967398 95.27348865 154.3643783 98.87217712 164.70570374 C99.12297531 165.42852539 99.3737735 166.15134705 99.63217163 166.89607239 C100.0957068 168.23085415 100.56117654 169.56496697 101.02929688 170.89814758 C102.84913896 176.13633542 104.46503892 181.43060018 106.08538818 186.73344421 C107.73520906 192.06505381 109.48890149 197.36121206 111.24278259 202.65931702 C112.00469092 204.97305668 112.76640426 207.28686056 113.52793884 209.60072327 C114.71326388 213.19823667 115.89996122 216.79527715 117.08995056 220.39125061 C118.24904175 223.8959751 119.40260926 227.40247741 120.55528259 230.90931702 C120.91458862 231.99048798 121.27389465 233.07165894 121.64408875 234.18559265 C121.97153076 235.18448517 122.29897278 236.18337769 122.63633728 237.21253967 C122.92627563 238.09044159 123.21621399 238.96834351 123.51493835 239.87284851 C124.13340759 242.12025452 124.13340759 242.12025452 124.13340759 245.12025452 C112.25340759 245.12025452 100.37340759 245.12025452 88.13340759 245.12025452 C77.54274116 215.89001515 77.54274116 215.89001515 74.07090759 203.34291077 C73.20645489 200.16201778 73.20645489 200.16201778 72.00840759 197.36634827 C71.13340759 195.12025452 71.13340759 195.12025452 71.13340759 192.12025452 C21.13840759 192.61525452 21.13840759 192.61525452 -29.86659241 193.12025452 C-32.34991237 199.32855441 -34.73156142 205.42868783 -36.81190491 211.76087952 C-37.06785431 212.53155762 -37.32380371 213.30223572 -37.58750916 214.0962677 C-38.39173919 216.51999066 -39.1917588 218.94507764 -39.99159241 221.37025452 C-40.53427864 223.00836897 -41.07724541 224.64639051 -41.62049866 226.28431702 C-42.8153969 229.88846666 -44.00765078 233.49347798 -45.19743347 237.09931946 C-46.08315315 239.77429224 -46.97552682 242.44705777 -47.86659241 245.12025452 C-59.41659241 245.12025452 -70.96659241 245.12025452 -82.86659241 245.12025452 C-81.51356005 239.0316089 -80.07131381 233.29089128 -78.10902405 227.41517639 C-77.83554956 226.58456979 -77.56207508 225.75396318 -77.28031349 224.89818668 C-76.36668119 222.12704486 -75.44674815 219.35803839 -74.52674866 216.58900452 C-73.86175435 214.57690701 -73.19711725 212.56469142 -72.5328064 210.55236816 C-70.71736343 205.0572754 -68.89615952 199.56410778 -67.07367706 194.07134628 C-65.54128794 189.45096678 -64.01189782 184.82959679 -62.48241425 180.20825481 C-57.41844729 164.90869004 -52.34153923 149.61343378 -47.26129913 134.31926727 C-46.07636791 130.75195482 -44.89171123 127.18455126 -43.70713371 123.61712134 C-37.28581248 104.27902534 -30.85780808 84.94316265 -24.42218798 65.60982049 C-22.72226738 60.50278396 -21.02360816 55.39532892 -19.32536316 50.28773499 C-17.24664886 44.03615249 -15.16561232 37.78534844 -13.08166105 31.53550965 C-12.00966176 28.32043822 -10.93860977 25.10505943 -9.87006569 21.88883781 C-8.70683004 18.38943418 -7.53990556 14.89128302 -6.3719635 11.39344788 C-6.02838838 10.35709953 -5.68481325 9.32075119 -5.33082676 8.25299835 C-4.86203555 6.85292164 -4.86203555 6.85292164 -4.3837738 5.42456055 C-4.11305746 4.61186675 -3.84234112 3.79917295 -3.56342125 2.96185207 C-2.5037415 0.16130261 -2.5037415 0.16130261 0 0 Z " fill="#7DFDFE" transform="translate(173.86659240722656,173.87974548339844)"/>
<path d="M0 0 C48.51 0 97.02 0 147 0 C147 9.24 147 18.48 147 28 C128.52 28 110.04 28 91 28 C91 90.37 91 152.74 91 217 C109.48 217 127.96 217 147 217 C147 226.24 147 235.48 147 245 C98.49 245 49.98 245 0 245 C0 235.43 0 225.86 0 216 C18.81 216 37.62 216 57 216 C57 153.96 57 91.92 57 28 C38.19 28 19.38 28 0 28 C0 18.76 0 9.52 0 0 Z " fill="#5AE3FE" transform="translate(332,174)"/>
<path d="M0 0 C2 1 2 1 3.04397583 3.66905212 C3.41763275 4.86615311 3.79128967 6.06325409 4.17626953 7.29663086 C4.38524117 7.95865981 4.5942128 8.62068876 4.80951691 9.3027792 C5.50783366 11.52127273 6.19521917 13.74300542 6.8828125 15.96484375 C7.37424473 17.53282389 7.86639547 19.100579 8.35922241 20.66812134 C9.68244008 24.88299327 10.99661383 29.10063512 12.30917358 33.31883621 C13.66369362 37.66661473 15.0261837 42.01189088 16.38867188 46.35717773 C16.65893818 47.21918698 16.92920448 48.08119623 17.20766068 48.96932697 C17.75355163 50.71043132 18.29946657 52.45152814 18.84540558 54.19261742 C19.66557588 56.80951621 20.48471111 59.42673719 21.3036499 62.04402161 C24.5453422 72.39914909 27.82159476 82.74222964 31.1484375 93.0703125 C31.52823761 94.249991 31.90803772 95.42966949 32.29934692 96.64509583 C33.70636339 101.01115465 35.1150741 105.376638 36.53131104 109.73971558 C37.47229035 112.63916177 38.40839168 115.54014297 39.34375 118.44140625 C39.61754486 119.27838043 39.89133972 120.11535461 40.1734314 120.97769165 C41.17377495 124.08964658 42 126.70936075 42 130 C14.94 130 -12.12 130 -40 130 C-39.30240296 125.11682075 -38.6407456 121.42654512 -37.12890625 116.8828125 C-36.52840454 115.0562915 -36.52840454 115.0562915 -35.91577148 113.19287109 C-35.69702362 112.53567078 -35.47827576 111.87847046 -35.25289917 111.20135498 C-34.01120832 107.46700667 -32.79169937 103.72540348 -31.5703125 99.984375 C-31.29656296 99.14703827 -31.02281342 98.30970154 -30.74076843 97.44699097 C-26.71989124 85.11731794 -22.83693042 72.74348223 -18.9375 60.375 C-18.54847504 59.14180023 -18.15945007 57.90860046 -17.75863647 56.63803101 C-11.80666816 37.76882061 -5.87637877 18.89289808 0 0 Z " fill="#4F7FE7" transform="translate(193,206)"/>
</svg>
